<svg xmlns="http://www.w3.org/2000/svg" xmlns:xlink="http://www.w3.org/1999/xlink" width="500" zoomAndPan="magnify" viewBox="0 0 375 374.999991" height="500" preserveAspectRatio="xMidYMid meet" version="1.0"><defs><clipPath id="3307019a13"><path d="M 0 280.1875 L 375 280.1875 L 375 375 L 0 375 Z M 0 280.1875 " clip-rule="nonzero"/></clipPath><clipPath id="69f50fb1d1"><path d="M 23.25 280.1875 L 351.75 280.1875 C 364.589844 280.1875 375 290.59375 375 303.4375 L 375 351.75 C 375 364.589844 364.589844 375 351.75 375 L 23.25 375 C 10.410156 375 0 364.589844 0 351.75 L 0 303.4375 C 0 290.59375 10.410156 280.1875 23.25 280.1875 Z M 23.25 280.1875 " clip-rule="nonzero"/></clipPath><clipPath id="3a9d27afc4"><path d="M 0 0.1875 L 375 0.1875 L 375 95 L 0 95 Z M 0 0.1875 " clip-rule="nonzero"/></clipPath><clipPath id="612760d7b4"><path d="M 23.25 0.1875 L 351.75 0.1875 C 364.589844 0.1875 375 10.59375 375 23.4375 L 375 71.75 C 375 84.589844 364.589844 95 351.75 95 L 23.25 95 C 10.410156 95 0 84.589844 0 71.75 L 0 23.4375 C 0 10.59375 10.410156 0.1875 23.25 0.1875 Z M 23.25 0.1875 " clip-rule="nonzero"/></clipPath><clipPath id="e501e24197"><rect x="0" width="375" y="0" height="95"/></clipPath></defs><g clip-path="url(#3307019a13)"><g clip-path="url(#69f50fb1d1)"><g transform="matrix(1, 0, 0, 1, 0, 280)"><g clip-path="url(#e501e24197)"><g clip-path="url(#3a9d27afc4)"><g clip-path="url(#612760d7b4)"><path fill="#a9e0cb" d="M 0 0.1875 L 375.183594 0.1875 L 375.183594 95 L 0 95 Z M 0 0.1875 " fill-opacity="1" fill-rule="nonzero"/></g></g></g></g></g></g></svg>