<svg xmlns="http://www.w3.org/2000/svg" xmlns:xlink="http://www.w3.org/1999/xlink" width="500" zoomAndPan="magnify" viewBox="0 0 375 374.999991" height="500" preserveAspectRatio="xMidYMid meet" version="1.0"><defs><g/><clipPath id="f2451678aa"><path d="M 19.464844 65.335938 L 197.609375 65.335938 L 197.609375 100.796875 L 19.464844 100.796875 Z M 19.464844 65.335938 " clip-rule="nonzero"/></clipPath><clipPath id="7667eef592"><path d="M 37.199219 65.335938 L 179.8125 65.335938 C 189.605469 65.335938 197.542969 73.273438 197.542969 83.066406 C 197.542969 92.859375 189.605469 100.796875 179.8125 100.796875 L 37.199219 100.796875 C 27.40625 100.796875 19.464844 92.859375 19.464844 83.066406 C 19.464844 73.273438 27.40625 65.335938 37.199219 65.335938 Z M 37.199219 65.335938 " clip-rule="nonzero"/></clipPath><clipPath id="3e0add8de2"><path d="M 0.464844 0.335938 L 178.609375 0.335938 L 178.609375 35.796875 L 0.464844 35.796875 Z M 0.464844 0.335938 " clip-rule="nonzero"/></clipPath><clipPath id="1e6fadd323"><path d="M 18.199219 0.335938 L 160.8125 0.335938 C 170.605469 0.335938 178.542969 8.273438 178.542969 18.066406 C 178.542969 27.859375 170.605469 35.796875 160.8125 35.796875 L 18.199219 35.796875 C 8.40625 35.796875 0.464844 27.859375 0.464844 18.066406 C 0.464844 8.273438 8.40625 0.335938 18.199219 0.335938 Z M 18.199219 0.335938 " clip-rule="nonzero"/></clipPath><clipPath id="dde133e58d"><rect x="0" width="179" y="0" height="36"/></clipPath><clipPath id="fa09e37569"><path d="M 211.199219 135.269531 L 355.542969 135.269531 L 355.542969 170.734375 L 211.199219 170.734375 Z M 211.199219 135.269531 " clip-rule="nonzero"/></clipPath><clipPath id="e834f51e61"><path d="M 228.929688 135.269531 L 337.800781 135.269531 C 347.59375 135.269531 355.535156 143.210938 355.535156 153.003906 C 355.535156 162.796875 347.59375 170.734375 337.800781 170.734375 L 228.929688 170.734375 C 219.140625 170.734375 211.199219 162.796875 211.199219 153.003906 C 211.199219 143.210938 219.140625 135.269531 228.929688 135.269531 Z M 228.929688 135.269531 " clip-rule="nonzero"/></clipPath><clipPath id="410aeb8931"><path d="M 0.199219 0.269531 L 144.542969 0.269531 L 144.542969 35.734375 L 0.199219 35.734375 Z M 0.199219 0.269531 " clip-rule="nonzero"/></clipPath><clipPath id="9e315331ea"><path d="M 17.929688 0.269531 L 126.800781 0.269531 C 136.59375 0.269531 144.535156 8.210938 144.535156 18.003906 C 144.535156 27.796875 136.59375 35.734375 126.800781 35.734375 L 17.929688 35.734375 C 8.140625 35.734375 0.199219 27.796875 0.199219 18.003906 C 0.199219 8.210938 8.140625 0.269531 17.929688 0.269531 Z M 17.929688 0.269531 " clip-rule="nonzero"/></clipPath><clipPath id="9ec5987a01"><rect x="0" width="145" y="0" height="36"/></clipPath><clipPath id="d930a6f974"><path d="M 211.199219 184.835938 L 355.554688 184.835938 L 355.554688 246.222656 L 211.199219 246.222656 Z M 211.199219 184.835938 " clip-rule="nonzero"/></clipPath><clipPath id="396fbf6462"><path d="M 227.699219 184.835938 L 339.035156 184.835938 C 348.144531 184.835938 355.535156 192.222656 355.535156 201.335938 L 355.535156 229.722656 C 355.535156 238.832031 348.144531 246.222656 339.035156 246.222656 L 227.699219 246.222656 C 218.585938 246.222656 211.199219 238.832031 211.199219 229.722656 L 211.199219 201.335938 C 211.199219 192.222656 218.585938 184.835938 227.699219 184.835938 Z M 227.699219 184.835938 " clip-rule="nonzero"/></clipPath><clipPath id="122f487caf"><path d="M 0.199219 0.835938 L 144.554688 0.835938 L 144.554688 62.222656 L 0.199219 62.222656 Z M 0.199219 0.835938 " clip-rule="nonzero"/></clipPath><clipPath id="838787fe05"><path d="M 16.699219 0.835938 L 128.035156 0.835938 C 137.144531 0.835938 144.535156 8.222656 144.535156 17.335938 L 144.535156 45.722656 C 144.535156 54.832031 137.144531 62.222656 128.035156 62.222656 L 16.699219 62.222656 C 7.585938 62.222656 0.199219 54.832031 0.199219 45.722656 L 0.199219 17.335938 C 0.199219 8.222656 7.585938 0.835938 16.699219 0.835938 Z M 16.699219 0.835938 " clip-rule="nonzero"/></clipPath><clipPath id="8c3ed901f4"><rect x="0" width="145" y="0" height="63"/></clipPath></defs><g clip-path="url(#f2451678aa)"><g clip-path="url(#7667eef592)"><g transform="matrix(1, 0, 0, 1, 19, 65)"><g clip-path="url(#dde133e58d)"><g clip-path="url(#3e0add8de2)"><g clip-path="url(#1e6fadd323)"><path fill="#545454" d="M 0.464844 0.335938 L 178.609375 0.335938 L 178.609375 35.796875 L 0.464844 35.796875 Z M 0.464844 0.335938 " fill-opacity="1" fill-rule="nonzero"/></g></g></g></g></g></g><g fill="#178650" fill-opacity="1"><g transform="translate(17.476563, 242.105499)"><g><path d="M 45.875 1.390625 C 40.257812 1.390625 34.988281 0.472656 30.0625 -1.359375 C 25.132812 -3.191406 20.789062 -6.070312 17.03125 -10 C 13.28125 -13.9375 10.34375 -19.007812 8.21875 -25.21875 C 6.09375 -31.425781 5.03125 -38.882812 5.03125 -47.59375 C 5.03125 -55.726562 5.976562 -63.039062 7.875 -69.53125 C 9.78125 -76.03125 12.546875 -81.554688 16.171875 -86.109375 C 19.796875 -90.660156 24.148438 -94.140625 29.234375 -96.546875 C 34.316406 -98.960938 40.019531 -100.171875 46.34375 -100.171875 C 53.226562 -100.171875 59.289062 -98.84375 64.53125 -96.1875 C 69.769531 -93.539062 73.96875 -89.984375 77.125 -85.515625 C 80.289062 -81.054688 82.160156 -76.039062 82.734375 -70.46875 L 60 -70.46875 C 59.289062 -73.738281 57.695312 -76.242188 55.21875 -77.984375 C 52.75 -79.734375 49.742188 -80.609375 46.203125 -80.609375 C 42.097656 -80.609375 38.6875 -79.425781 35.96875 -77.0625 C 33.25 -74.695312 31.210938 -71.359375 29.859375 -67.046875 C 28.515625 -62.742188 27.84375 -57.65625 27.84375 -51.78125 L 28.3125 -51.78125 C 29.769531 -54.601562 31.734375 -57.019531 34.203125 -59.03125 C 36.679688 -61.039062 39.519531 -62.578125 42.71875 -63.640625 C 45.925781 -64.703125 49.320312 -65.234375 52.90625 -65.234375 C 58.957031 -65.234375 64.3125 -63.863281 68.96875 -61.125 C 73.632812 -58.382812 77.28125 -54.601562 79.90625 -49.78125 C 82.539062 -44.96875 83.859375 -39.46875 83.859375 -33.28125 C 83.859375 -26.425781 82.253906 -20.390625 79.046875 -15.171875 C 75.847656 -9.960938 71.394531 -5.898438 65.6875 -2.984375 C 59.988281 -0.0664062 53.382812 1.390625 45.875 1.390625 Z M 45.671875 -16.703125 C 48.679688 -16.703125 51.34375 -17.410156 53.65625 -18.828125 C 55.976562 -20.242188 57.820312 -22.15625 59.1875 -24.5625 C 60.5625 -26.96875 61.25 -29.695312 61.25 -32.75 C 61.25 -35.75 60.570312 -38.453125 59.21875 -40.859375 C 57.875 -43.273438 56.039062 -45.164062 53.71875 -46.53125 C 51.40625 -47.90625 48.742188 -48.59375 45.734375 -48.59375 C 43.523438 -48.59375 41.484375 -48.191406 39.609375 -47.390625 C 37.734375 -46.597656 36.097656 -45.472656 34.703125 -44.015625 C 33.304688 -42.554688 32.210938 -40.863281 31.421875 -38.9375 C 30.628906 -37.019531 30.234375 -34.9375 30.234375 -32.6875 C 30.234375 -29.675781 30.90625 -26.96875 32.25 -24.5625 C 33.59375 -22.15625 35.4375 -20.242188 37.78125 -18.828125 C 40.125 -17.410156 42.753906 -16.703125 45.671875 -16.703125 Z M 45.671875 -16.703125 "/></g></g></g><g fill="#178650" fill-opacity="1"><g transform="translate(106.371322, 242.105499)"><g><path d="M 46.53125 1.390625 C 37.832031 1.390625 30.390625 -0.628906 24.203125 -4.671875 C 18.015625 -8.710938 13.269531 -14.5 9.96875 -22.03125 C 6.675781 -29.570312 5.03125 -38.671875 5.03125 -49.328125 C 5.03125 -59.972656 6.675781 -69.082031 9.96875 -76.65625 C 13.269531 -84.238281 18.015625 -90.050781 24.203125 -94.09375 C 30.390625 -98.144531 37.832031 -100.171875 46.53125 -100.171875 C 55.238281 -100.171875 62.695312 -98.132812 68.90625 -94.0625 C 75.113281 -90 79.863281 -84.1875 83.15625 -76.625 C 86.457031 -69.070312 88.109375 -59.972656 88.109375 -49.328125 C 88.109375 -38.671875 86.457031 -29.570312 83.15625 -22.03125 C 79.863281 -14.5 75.125 -8.710938 68.9375 -4.671875 C 62.75 -0.628906 55.28125 1.390625 46.53125 1.390625 Z M 46.53125 -17.703125 C 50.332031 -17.703125 53.554688 -18.925781 56.203125 -21.375 C 58.859375 -23.832031 60.882812 -27.425781 62.28125 -32.15625 C 63.675781 -36.882812 64.375 -42.609375 64.375 -49.328125 C 64.375 -56.085938 63.675781 -61.84375 62.28125 -66.59375 C 60.882812 -71.34375 58.859375 -74.960938 56.203125 -77.453125 C 53.554688 -79.953125 50.359375 -81.203125 46.609375 -81.203125 C 42.804688 -81.203125 39.566406 -79.953125 36.890625 -77.453125 C 34.210938 -74.960938 32.175781 -71.34375 30.78125 -66.59375 C 29.394531 -61.84375 28.703125 -56.085938 28.703125 -49.328125 C 28.703125 -42.609375 29.394531 -36.882812 30.78125 -32.15625 C 32.175781 -27.425781 34.210938 -23.832031 36.890625 -21.375 C 39.566406 -18.925781 42.78125 -17.703125 46.53125 -17.703125 Z M 46.53125 -17.703125 "/></g></g></g><g clip-path="url(#fa09e37569)"><g clip-path="url(#e834f51e61)"><g transform="matrix(1, 0, 0, 1, 211, 135)"><g clip-path="url(#9ec5987a01)"><g clip-path="url(#410aeb8931)"><g clip-path="url(#9e315331ea)"><path fill="#178650" d="M 0.199219 0.269531 L 144.542969 0.269531 L 144.542969 35.734375 L 0.199219 35.734375 Z M 0.199219 0.269531 " fill-opacity="1" fill-rule="nonzero"/></g></g></g></g></g></g><g clip-path="url(#d930a6f974)"><g clip-path="url(#396fbf6462)"><g transform="matrix(1, 0, 0, 1, 211, 184)"><g clip-path="url(#8c3ed901f4)"><g clip-path="url(#122f487caf)"><g clip-path="url(#838787fe05)"><path fill="#178650" d="M 0.199219 0.835938 L 144.554688 0.835938 L 144.554688 62.222656 L 0.199219 62.222656 Z M 0.199219 0.835938 " fill-opacity="1" fill-rule="nonzero"/></g></g></g></g></g></g></svg>